<svg xmlns="http://www.w3.org/2000/svg" viewBox="0 0 312 312"><title>Asset 1</title><g id="Layer_2" data-name="Layer 2"><g id="Layer_1-2" data-name="Layer 1"><path d="M156,0C70,0,0,70,0,156S70,312,156,312s156-70,156-156S242,0,156,0ZM283,123.85,168.55,142.37l.38-116.73A131.31,131.31,0,0,1,283,123.85ZM143.93,27.42l-.38,114.76a58.59,58.59,0,0,1,.38-114.76ZM168.08,285l.38-115.14A58.83,58.83,0,0,1,168.08,285ZM79.93,49.41a83.07,83.07,0,0,0,7.64,83.84L29,123.77A131.32,131.32,0,0,1,79.93,49.41ZM25,156c0-2.52.08-5,.22-7.51l118.25,19.14-.39,118.73C76.89,279.85,25,223.87,25,156ZM232.26,262.45a83.55,83.55,0,0,0-24.54-101.09l79.06-12.8c.14,2.46.22,4.94.22,7.44A130.91,130.91,0,0,1,232.26,262.45Z"/></g></g></svg>