<svg xmlns="http://www.w3.org/2000/svg" viewBox="0 0 274.11 274.11"><defs><style>.cls-1{fill:#fff;}</style></defs><title>cc</title><g id="Layer_2" data-name="Layer 2"><g id="Layer_1-2" data-name="Layer 1"><path class="cls-1" d="M137.05,0C61.48,0,0,61.48,0,137.05S61.48,274.11,137.05,274.11s137.06-61.49,137.06-137.06S212.62,0,137.05,0ZM248.63,108.81,148.08,125.08l.33-102.56A115.37,115.37,0,0,1,248.63,108.81ZM126.45,24.09l-.34,100.82a51.47,51.47,0,0,1,.34-100.82Zm21.22,226.26L148,149.19a51.69,51.69,0,0,1-.33,101.16ZM70.22,43.41a73,73,0,0,0,6.71,73.66l-51.44-8.33A115.42,115.42,0,0,1,70.22,43.41ZM22,137.05q0-3.31.2-6.6L126,147.27l-.34,104.31A115.25,115.25,0,0,1,22,137.05Zm182.09,93.53a73.41,73.41,0,0,0-21.56-88.82L252,130.52c.12,2.16.19,4.34.19,6.53A115,115,0,0,1,204.05,230.58Z"/></g></g></svg>